<svg xmlns="http://www.w3.org/2000/svg" xmlns:xlink="http://www.w3.org/1999/xlink" width="500" zoomAndPan="magnify"
    viewBox="0 0 375 374.999991" height="500" preserveAspectRatio="xMidYMid meet" version="1.0">
   <defs>
        <clipPath id="183f66633d">
            <path
                d="M 121.851562 259.449219 L 253.429688 259.449219 L 253.429688 367.808594 L 121.851562 367.808594 Z M 121.851562 259.449219 "
                clip-rule="nonzero" />
        </clipPath>
        <clipPath id="c379451370">
            <path
                d="M 81.222656 155.90625 L 294.074219 155.90625 L 294.074219 208.796875 L 81.222656 208.796875 Z M 81.222656 155.90625 "
                clip-rule="nonzero" />
        </clipPath>
        <clipPath id="b9222b4f28">
            <path d="M 77.542969 12 L 295 12 L 295 136.332031 L 77.542969 136.332031 Z M 77.542969 12 "
                clip-rule="nonzero" />
        </clipPath>
        <clipPath id="fb5a54e7f3">
            <path d="M 112 11 L 261 11 L 261 136.332031 L 112 136.332031 Z M 112 11 " clip-rule="nonzero" />
        </clipPath>
    </defs>
    <g clip-path="url(#183f66633d)">
        <path fill="#141414"
            d="M 136.996094 273.492188 C 150.695312 266.636719 171.171875 259.503906 175.996094 259.503906 C 180.816406 259.503906 185.585938 260.820312 185.585938 260.820312 C 186.265625 260.988281 186.949219 261.066406 187.648438 261.066406 C 188.339844 261.066406 189.023438 260.988281 189.703125 260.820312 C 189.703125 260.820312 194.472656 259.503906 199.296875 259.503906 C 204.117188 259.503906 224.59375 266.636719 238.292969 273.492188 C 250.480469 279.578125 248.742188 295.105469 248.742188 295.105469 C 248.742188 295.105469 240.90625 282.015625 218.976562 280.96875 C 199.152344 280.019531 192.34375 280.445312 187.648438 276.777344 C 182.945312 280.445312 176.140625 280.019531 156.3125 280.96875 C 134.382812 282.015625 126.546875 295.105469 126.546875 295.105469 C 126.546875 295.105469 124.808594 279.578125 136.996094 273.492188 Z M 218.976562 348.914062 C 216.121094 348.15625 211.714844 345.554688 208.148438 343.03125 C 208.367188 345.28125 209.71875 348.101562 211.40625 349.714844 C 211.40625 349.714844 196.113281 343.03125 195.738281 324.910156 C 195.554688 316.027344 202.636719 315.289062 206.683594 307.613281 C 206.742188 308.1875 205.78125 312.425781 204.4375 315.132812 C 212.378906 311.222656 216.886719 299.695312 216.886719 299.695312 C 206.445312 305.453125 187.648438 302.3125 187.648438 302.3125 C 187.648438 302.3125 168.847656 305.453125 158.402344 299.695312 C 158.402344 299.695312 162.910156 311.222656 170.859375 315.132812 C 169.507812 312.425781 168.554688 308.1875 168.605469 307.613281 C 172.660156 315.289062 179.738281 316.027344 179.558594 324.910156 C 179.175781 343.03125 163.882812 349.722656 163.882812 349.722656 C 165.570312 348.101562 166.921875 345.28125 167.140625 343.03125 C 163.574219 345.554688 159.167969 348.164062 156.3125 348.914062 C 146.394531 351.527344 129.160156 324.828125 121.851562 318.023438 C 121.851562 318.023438 138.5625 349.433594 147.960938 357.285156 C 157.359375 365.140625 171.671875 367.761719 187.648438 367.761719 C 203.617188 367.761719 217.929688 365.140625 227.328125 357.285156 C 236.726562 349.4375 253.4375 318.023438 253.4375 318.023438 C 246.128906 324.828125 228.894531 351.527344 218.976562 348.914062 Z M 218.976562 348.914062 "
            fill-opacity="1" fill-rule="nonzero" />
    </g>
    <g clip-path="url(#c379451370)">
        <path fill="#141414"
            d="M 292.15625 171.171875 L 289 171.171875 C 288.644531 169.324219 287.859375 167.683594 286.640625 166.246094 C 285.871094 165.320312 284.933594 164.59375 283.855469 164.0625 C 270.632812 157.855469 256.480469 155.917969 244.125 155.917969 C 231.246094 155.925781 220.308594 158.015625 214.292969 159.632812 C 212.824219 160.003906 211.378906 160.472656 209.972656 161.039062 C 206.882812 162.375 205.078125 164.195312 204.117188 165.890625 C 203.90625 166.253906 203.726562 166.628906 203.578125 167.019531 C 198.082031 167.785156 177.21875 167.785156 171.722656 167.019531 C 171.578125 166.628906 171.394531 166.253906 171.1875 165.890625 C 170.21875 164.195312 168.417969 162.375 165.328125 161.039062 C 163.925781 160.472656 162.480469 160.003906 161.007812 159.632812 C 154.996094 158.015625 144.058594 155.925781 131.183594 155.917969 C 118.820312 155.917969 104.671875 157.855469 91.449219 164.0625 C 90.359375 164.585938 89.433594 165.320312 88.660156 166.246094 C 87.453125 167.683594 86.664062 169.328125 86.296875 171.171875 L 83.136719 171.171875 C 83.136719 171.171875 81.222656 171.078125 81.222656 172.59375 L 81.222656 181.410156 C 81.304688 182.015625 81.644531 182.390625 82.230469 182.53125 C 83.601562 182.6875 84.980469 182.78125 86.363281 182.800781 C 86.664062 187.78125 87.242188 192.71875 88.097656 197.628906 C 88.097656 197.628906 88.097656 197.640625 88.097656 197.640625 C 88.097656 197.640625 88.097656 197.648438 88.101562 197.65625 C 88.285156 198.628906 88.613281 199.550781 89.078125 200.425781 C 90.113281 202.433594 91.644531 203.929688 93.671875 204.914062 C 94.175781 205.148438 94.695312 205.34375 95.230469 205.496094 C 97.457031 206.183594 101.273438 206.988281 106.425781 207.632812 C 112.71875 208.40625 119.042969 208.789062 125.390625 208.769531 C 136.148438 208.769531 146.8125 207.769531 157.378906 205.753906 L 157.398438 205.746094 L 157.414062 205.746094 C 159.75 205.132812 161.867188 204.074219 163.757812 202.566406 C 165.652344 201.054688 167.164062 199.234375 168.285156 197.085938 C 169.425781 194.800781 170.414062 191.402344 171.160156 187.324219 C 171.859375 183.414062 172.253906 179.476562 172.347656 175.503906 C 173.613281 174.148438 177.703125 170.492188 187.648438 170.492188 C 197.597656 170.492188 201.691406 174.148438 202.953125 175.503906 C 203.046875 179.476562 203.445312 183.414062 204.140625 187.324219 C 204.886719 191.402344 205.882812 194.800781 207.019531 197.085938 C 208.140625 199.234375 209.652344 201.054688 211.546875 202.566406 C 213.441406 204.074219 215.550781 205.132812 217.890625 205.746094 L 217.902344 205.746094 L 217.921875 205.753906 C 228.496094 207.769531 239.160156 208.769531 249.917969 208.769531 C 256.261719 208.789062 262.582031 208.40625 268.882812 207.640625 C 274.03125 206.988281 277.855469 206.183594 280.070312 205.496094 C 280.609375 205.34375 281.125 205.148438 281.628906 204.914062 C 283.660156 203.929688 285.191406 202.433594 286.226562 200.425781 C 286.695312 199.550781 287.019531 198.628906 287.207031 197.65625 C 287.207031 197.648438 287.207031 197.648438 287.207031 197.640625 C 287.207031 197.640625 287.207031 197.628906 287.214844 197.628906 C 288.058594 192.71875 288.636719 187.773438 288.945312 182.800781 C 290.324219 182.78125 291.703125 182.6875 293.070312 182.53125 C 293.664062 182.390625 294 182.015625 294.078125 181.410156 L 294.078125 172.59375 C 294.078125 171.078125 292.15625 171.171875 292.15625 171.171875 Z M 168.566406 186.84375 C 167.855469 190.75 166.875 194 165.925781 195.902344 C 164.636719 198.433594 162.75 200.382812 160.261719 201.742188 C 159.476562 202.183594 158.65625 202.5625 157.804688 202.863281 C 157.496094 202.96875 157.246094 203.050781 157.078125 203.089844 C 156.996094 203.117188 156.9375 203.132812 156.894531 203.136719 L 156.875 203.144531 C 146.476562 205.128906 135.980469 206.113281 125.390625 206.113281 C 118.453125 206.140625 111.550781 205.679688 104.679688 204.730469 C 102.023438 204.339844 99.808594 203.917969 98.121094 203.527344 C 97.28125 203.328125 96.570312 203.136719 96.011719 202.957031 C 95.609375 202.84375 95.210938 202.695312 94.820312 202.527344 C 93.316406 201.792969 92.179688 200.6875 91.421875 199.195312 C 91.179688 198.730469 90.984375 198.246094 90.835938 197.75 C 90.785156 197.570312 90.75 197.425781 90.730469 197.339844 L 90.710938 197.238281 L 90.710938 197.21875 L 90.703125 197.207031 C 89.203125 188.457031 88.875 181.996094 88.640625 174.644531 C 88.632812 174.488281 88.632812 174.328125 88.632812 174.175781 C 88.640625 171.003906 89.675781 169.136719 90.664062 167.980469 C 91.050781 167.523438 91.503906 167.121094 92.007812 166.785156 C 92.1875 166.664062 92.328125 166.582031 92.421875 166.535156 L 92.53125 166.480469 L 92.570312 166.46875 C 105.324219 160.46875 119.097656 158.566406 131.183594 158.566406 C 138.515625 158.578125 145.785156 159.246094 152.992188 160.5625 C 155.910156 161.097656 158.394531 161.675781 160.324219 162.195312 C 161.671875 162.535156 162.988281 162.960938 164.285156 163.464844 C 166.933594 164.625 168.21875 166.023438 168.902344 167.214844 C 169.386719 168.019531 169.636719 168.898438 169.660156 169.839844 L 169.660156 170.007812 L 169.640625 170.117188 L 169.648438 170.230469 C 169.707031 171.386719 169.734375 172.542969 169.734375 173.691406 C 169.734375 178.109375 169.347656 182.5 168.566406 186.84375 Z M 286.667969 174.652344 C 286.425781 182 286.105469 188.464844 284.597656 197.207031 L 284.597656 197.246094 L 284.578125 197.339844 C 284.558594 197.425781 284.527344 197.570312 284.472656 197.757812 C 284.324219 198.253906 284.128906 198.730469 283.886719 199.195312 C 283.121094 200.6875 281.984375 201.792969 280.480469 202.527344 C 280.097656 202.703125 279.703125 202.84375 279.292969 202.964844 C 278.734375 203.136719 278.023438 203.328125 277.183594 203.527344 C 275.496094 203.925781 273.285156 204.339844 270.625 204.730469 C 263.757812 205.679688 256.851562 206.140625 249.917969 206.113281 C 239.328125 206.121094 228.832031 205.132812 218.433594 203.144531 L 218.40625 203.144531 C 218.371094 203.136719 218.304688 203.117188 218.226562 203.089844 C 218.0625 203.050781 217.816406 202.976562 217.5 202.871094 C 216.644531 202.566406 215.828125 202.191406 215.039062 201.746094 C 212.554688 200.382812 210.667969 198.433594 209.375 195.902344 C 208.421875 194 207.449219 190.753906 206.742188 186.84375 C 205.964844 182.5 205.574219 178.109375 205.574219 173.691406 C 205.574219 172.542969 205.601562 171.386719 205.652344 170.230469 L 205.660156 170.117188 L 205.652344 170.007812 L 205.652344 169.996094 L 205.648438 169.839844 C 205.675781 168.898438 205.921875 168.027344 206.40625 167.214844 C 207.09375 166.03125 208.375 164.632812 211.023438 163.472656 C 212.3125 162.960938 213.636719 162.535156 214.980469 162.195312 C 216.90625 161.675781 219.394531 161.097656 222.316406 160.5625 C 229.527344 159.246094 236.796875 158.578125 244.125 158.574219 C 256.210938 158.574219 269.992188 160.46875 282.730469 166.46875 L 282.765625 166.472656 L 282.886719 166.535156 C 282.980469 166.582031 283.121094 166.664062 283.304688 166.785156 C 283.808594 167.125 284.25 167.523438 284.648438 167.984375 C 285.632812 169.140625 286.667969 171.007812 286.675781 174.179688 C 286.675781 174.335938 286.667969 174.488281 286.667969 174.652344 Z M 286.667969 174.652344 "
            fill-opacity="1" fill-rule="nonzero" />
    </g>
    <path fill="#141414" class="gray"
        d="M 198.089844 14.039062 C 198.089844 20.578125 192.789062 25.871094 186.257812 25.871094 C 179.71875 25.871094 174.425781 20.578125 174.425781 14.039062 C 174.425781 7.5 179.71875 2.207031 186.257812 2.207031 C 192.789062 2.207031 198.089844 7.5 198.089844 14.039062 "
        fill-opacity="1" fill-rule="nonzero" />
    <path fill="#0d0b0b"
        d="M 269.824219 124.570312 C 269.824219 130.953125 264.652344 136.125 258.269531 136.125 L 181.042969 136.125 C 174.660156 136.125 169.488281 130.953125 169.488281 124.570312 C 169.488281 118.1875 174.660156 113.011719 181.042969 113.011719 L 258.269531 113.011719 C 264.652344 113.011719 269.824219 118.1875 269.824219 124.570312 "
        fill-opacity="1" fill-rule="nonzero" />
    <path fill="#141414" class="gray"
        d="M 226.699219 124.570312 C 226.699219 130.953125 221.523438 136.125 215.148438 136.125 L 137.914062 136.125 C 131.53125 136.125 126.359375 130.953125 126.359375 124.570312 C 126.359375 118.1875 131.53125 113.011719 137.914062 113.011719 L 215.148438 113.011719 C 221.523438 113.011719 226.699219 118.1875 226.699219 124.570312 "
        fill-opacity="1" fill-rule="nonzero" />
    <path fill="#0d0b0b"
        d="M 211.828125 124.570312 C 211.828125 126.613281 210.175781 128.269531 208.125 128.269531 C 206.089844 128.269531 204.429688 126.613281 204.429688 124.570312 C 204.429688 122.527344 206.089844 120.867188 208.125 120.867188 C 210.175781 120.867188 211.828125 122.527344 211.828125 124.570312 "
        fill-opacity="1" fill-rule="nonzero" />
    <path fill="#0d0b0b"
        d="M 191.960938 124.570312 C 191.960938 126.613281 190.300781 128.269531 188.257812 128.269531 C 186.21875 128.269531 184.5625 126.613281 184.5625 124.570312 C 184.5625 122.527344 186.21875 120.867188 188.257812 120.867188 C 190.300781 120.867188 191.960938 122.527344 191.960938 124.570312 "
        fill-opacity="1" fill-rule="nonzero" />
    <path fill="#0d0b0b"
        d="M 172.09375 124.570312 C 172.09375 126.613281 170.433594 128.269531 168.390625 128.269531 C 166.347656 128.269531 164.691406 126.613281 164.691406 124.570312 C 164.691406 122.527344 166.347656 120.867188 168.390625 120.867188 C 170.433594 120.867188 172.09375 122.527344 172.09375 124.570312 "
        fill-opacity="1" fill-rule="nonzero" />
    <path fill="#0d0b0b"
        d="M 152.21875 124.570312 C 152.21875 126.613281 150.558594 128.269531 148.519531 128.269531 C 146.476562 128.269531 144.824219 126.613281 144.824219 124.570312 C 144.824219 122.527344 146.476562 120.867188 148.519531 120.867188 C 150.558594 120.867188 152.21875 122.527344 152.21875 124.570312 "
        fill-opacity="1" fill-rule="nonzero" />
    <g clip-path="url(#b9222b4f28)">
        <path fill="#0d0b0b"
            d="M 186.445312 13.449219 C 144.882812 6.125 72.972656 40.632812 78.144531 136.386719 L 135.46875 136.386719 C 134.652344 93.742188 166.894531 81.65625 186.34375 81.710938 C 204.09375 81.65625 238.859375 95.820312 236.984375 136.386719 L 294.054688 136.386719 C 302.269531 45.402344 220.859375 5.003906 186.445312 13.449219 "
            fill-opacity="1" fill-rule="nonzero" />
    </g>
    <g clip-path="url(#fb5a54e7f3)">
        <path fill="#141414" class="gray"
            d="M 258.972656 136.382812 C 258.996094 133.027344 259.007812 129.695312 258.921875 126.371094 L 258.867188 123.871094 L 258.757812 121.378906 C 258.699219 119.710938 258.585938 118.050781 258.496094 116.394531 C 258.253906 113.082031 257.988281 109.769531 257.605469 106.476562 C 257.242188 103.175781 256.75 99.898438 256.210938 96.625 C 255.683594 93.359375 254.996094 90.117188 254.265625 86.890625 C 253.539062 83.664062 252.679688 80.472656 251.738281 77.304688 C 250.789062 74.136719 249.734375 71.015625 248.585938 67.917969 C 247.417969 64.832031 246.207031 61.761719 244.824219 58.765625 C 242.097656 52.757812 238.960938 46.914062 235.238281 41.445312 C 233.367188 38.710938 231.375 36.0625 229.230469 33.535156 C 227.082031 31.015625 224.761719 28.640625 222.308594 26.410156 C 219.824219 24.210938 217.210938 22.164062 214.441406 20.339844 C 211.652344 18.566406 208.75 16.941406 205.679688 15.730469 C 202.628906 14.488281 199.425781 13.601562 196.179688 13.265625 C 192.949219 12.9375 189.644531 13.171875 186.695312 14.308594 C 186.527344 14.367188 186.351562 14.382812 186.191406 14.339844 L 186.148438 14.335938 C 182.972656 13.597656 179.671875 13.449219 176.433594 13.75 L 175.21875 13.859375 C 174.816406 13.917969 174.410156 13.992188 174.007812 14.058594 L 172.203125 14.375 L 171.609375 14.53125 L 169.230469 15.128906 L 166.90625 15.898438 C 166.128906 16.128906 165.382812 16.492188 164.628906 16.792969 C 163.878906 17.117188 163.109375 17.398438 162.386719 17.789062 L 160.1875 18.875 L 158.058594 20.113281 L 157.003906 20.730469 L 155.984375 21.421875 L 153.941406 22.800781 L 151.011719 25.042969 C 150.695312 25.304688 150.386719 25.589844 150.078125 25.851562 L 148.214844 27.476562 C 147.597656 28.015625 147.03125 28.617188 146.441406 29.191406 C 145.863281 29.773438 145.253906 30.324219 144.703125 30.9375 L 143.042969 32.769531 C 140.84375 35.230469 138.851562 37.863281 136.953125 40.566406 C 136 41.914062 135.160156 43.339844 134.246094 44.71875 C 133.375 46.121094 132.582031 47.578125 131.742188 49.003906 C 130.929688 50.441406 130.214844 51.941406 129.445312 53.40625 C 129.054688 54.136719 128.71875 54.894531 128.375 55.648438 L 127.347656 57.914062 C 126.621094 59.402344 126.050781 60.96875 125.417969 62.5 C 125.109375 63.273438 124.78125 64.035156 124.492188 64.8125 L 123.660156 67.164062 C 123.113281 68.738281 122.53125 70.296875 122.074219 71.894531 C 121.609375 73.492188 121.078125 75.074219 120.628906 76.679688 L 119.359375 81.515625 C 119.136719 82.316406 118.960938 83.136719 118.789062 83.949219 L 118.25 86.394531 L 117.707031 88.839844 C 117.539062 89.660156 117.402344 90.484375 117.25 91.304688 L 116.355469 96.242188 L 115.648438 101.207031 C 115.527344 102.042969 115.394531 102.867188 115.292969 103.695312 L 115.023438 106.199219 L 114.480469 111.199219 L 114.105469 116.21875 L 113.910156 118.730469 C 113.84375 119.5625 113.828125 120.402344 113.78125 121.242188 L 113.539062 126.28125 L 113.480469 127.546875 L 113.460938 128.800781 L 113.425781 131.328125 L 113.320312 136.382812 L 113.320312 136.386719 C 113.320312 136.480469 113.246094 136.554688 113.152344 136.550781 C 113.0625 136.550781 112.988281 136.480469 112.984375 136.394531 C 112.78125 133.027344 112.539062 129.65625 112.445312 126.28125 C 112.40625 122.902344 112.230469 119.523438 112.371094 116.136719 L 112.472656 111.066406 L 112.789062 105.992188 L 112.941406 103.460938 C 113.007812 102.613281 113.109375 101.765625 113.183594 100.925781 L 113.714844 95.867188 L 114.441406 90.828125 C 114.5625 89.988281 114.667969 89.140625 114.816406 88.300781 L 115.285156 85.796875 L 115.765625 83.296875 C 115.925781 82.457031 116.078125 81.625 116.289062 80.796875 L 117.457031 75.824219 C 118.34375 72.539062 119.238281 69.246094 120.378906 66.027344 L 121.199219 63.601562 C 121.488281 62.796875 121.8125 62.011719 122.113281 61.210938 C 122.75 59.625 123.316406 58.007812 124.042969 56.460938 L 125.097656 54.117188 C 125.453125 53.335938 125.796875 52.558594 126.203125 51.804688 C 127.003906 50.285156 127.742188 48.742188 128.582031 47.25 C 129.464844 45.777344 130.285156 44.273438 131.195312 42.824219 L 132.613281 40.671875 C 133.105469 39.960938 133.542969 39.226562 134.074219 38.542969 C 136.089844 35.769531 138.21875 33.058594 140.5625 30.535156 L 142.324219 28.652344 C 142.90625 28.019531 143.558594 27.449219 144.175781 26.84375 C 144.808594 26.261719 145.40625 25.640625 146.066406 25.085938 L 148.039062 23.417969 C 148.375 23.144531 148.699219 22.859375 149.042969 22.59375 L 150.078125 21.820312 L 152.160156 20.273438 L 154.335938 18.863281 L 155.425781 18.164062 L 156.558594 17.539062 C 157.320312 17.125 158.070312 16.691406 158.839844 16.289062 L 161.195312 15.195312 C 161.96875 14.804688 162.789062 14.515625 163.601562 14.207031 C 164.414062 13.917969 165.214844 13.570312 166.054688 13.347656 L 168.554688 12.613281 L 171.101562 12.070312 L 171.738281 11.941406 L 172.382812 11.855469 L 173.679688 11.695312 C 174.109375 11.640625 174.539062 11.582031 174.96875 11.539062 L 176.28125 11.480469 C 179.746094 11.3125 183.253906 11.628906 186.613281 12.566406 L 186.070312 12.59375 C 189.429688 11.460938 192.976562 11.371094 196.355469 11.847656 C 199.742188 12.359375 203.007812 13.347656 206.109375 14.683594 C 209.222656 16.015625 212.183594 17.640625 215 19.488281 C 217.808594 21.34375 220.503906 23.371094 223.035156 25.582031 C 225.589844 27.777344 227.988281 30.136719 230.285156 32.597656 C 232.582031 35.054688 234.746094 37.640625 236.78125 40.335938 C 240.847656 45.71875 244.402344 51.488281 247.382812 57.554688 C 248.871094 60.59375 250.21875 63.691406 251.410156 66.855469 C 252.605469 70.011719 253.699219 73.210938 254.613281 76.464844 C 255.535156 79.707031 256.375 82.972656 257.066406 86.273438 C 257.738281 89.578125 258.347656 92.890625 258.792969 96.230469 C 259.269531 99.5625 259.621094 102.90625 259.859375 106.261719 C 260.128906 109.613281 260.238281 112.972656 260.292969 116.324219 C 260.316406 119.683594 260.277344 123.039062 260.101562 126.382812 C 260.042969 128.054688 259.894531 129.730469 259.78125 131.402344 C 259.667969 133.074219 259.472656 134.726562 259.316406 136.394531 C 259.308594 136.488281 259.222656 136.554688 259.128906 136.550781 C 259.042969 136.542969 258.972656 136.460938 258.972656 136.382812 "
            fill-opacity="1" fill-rule="nonzero" />
    </g>
    <path fill="#141414" class="gray"
        d="M 120.339844 50.648438 C 120.339844 52.699219 118.679688 54.351562 116.636719 54.351562 C 114.59375 54.351562 112.941406 52.699219 112.941406 50.648438 C 112.941406 48.605469 114.59375 46.953125 116.636719 46.953125 C 118.679688 46.953125 120.339844 48.605469 120.339844 50.648438 "
        fill-opacity="1" fill-rule="nonzero" />
    <path fill="#141414" class="gray"
        d="M 162.613281 50.648438 C 162.613281 52.699219 160.960938 54.351562 158.917969 54.351562 C 156.875 54.351562 155.214844 52.699219 155.214844 50.648438 C 155.214844 48.605469 156.875 46.953125 158.917969 46.953125 C 160.960938 46.953125 162.613281 48.605469 162.613281 50.648438 "
        fill-opacity="1" fill-rule="nonzero" />
    <path fill="#141414" class="gray"
        d="M 252.175781 50.648438 C 252.175781 52.699219 253.828125 54.351562 255.871094 54.351562 C 257.914062 54.351562 259.570312 52.699219 259.570312 50.648438 C 259.570312 48.605469 257.914062 46.953125 255.871094 46.953125 C 253.828125 46.953125 252.175781 48.605469 252.175781 50.648438 "
        fill-opacity="1" fill-rule="nonzero" />
    <path fill="#141414" class="gray"
        d="M 209.894531 50.648438 C 209.894531 52.699219 211.554688 54.351562 213.597656 54.351562 C 215.636719 54.351562 217.292969 52.699219 217.292969 50.648438 C 217.292969 48.605469 215.636719 46.953125 213.597656 46.953125 C 211.554688 46.953125 209.894531 48.605469 209.894531 50.648438 "
        fill-opacity="1" fill-rule="nonzero" />
</svg>